{"title":"MommyGotBoobs Ava Addams XXX ****[NEW]**** 25 Aug. 2014 ","uid":10875280,"size":483074888,"categoryP":"porn","categoryS":"movies","magnet":"?xt=urn:btih:368682e88d9771e04bd3b639cb28e35c92025d5e&amp;dn=MommyGotBoobs+Ava+Addams+XXX+%2A%2A%2A%2A%5BNEW%5D%2A%2A%2A%2A+25+Aug.+2014+&amp;tr=udp%3A%2F%2Ftracker.openbittorrent.com%3A80&amp;tr=udp%3A%2F%2Fopen.demonii.com%3A1337&amp;tr=udp%3A%2F%2Ftracker.coppersurfer.tk%3A6969&amp;tr=udp%3A%2F%2Fexodus.desync.com%3A6969","seeders":0,"leechers":0,"uploader":"iH2OSO4","files":-1,"time":1408987648,"description":"MommyGotBoobs Ava Addams XXX ****[NEW]**** 25 Aug. 2014 \n\nAva Addams has this worldly vibe about her that we can't just seem to shake. With a fit athletic body, all natural tits, and a smile that can light up the entire room: Ava is the kind of girl you wish you could take home to meet your parents. Ava has admitted that she needs hot sauce on everything. It's easy to say that Ava only likes it hot, and it shows. In her earlier years, Ava was a self-proclaimed 'goth girl' - which her various tattoos nod in reference to. After posing for nude and fetish photos, Ava Addams curiosity grew for the adult industry. By starting with solo films, she eventually worked her way up to boy/girl scenes, and we're so glad that she did.\n\nSOURCE :   &lt;a href=&quot; http://nuscotower.com/i/4dfgkmhgd.html&quot; rel=&quot;nofollow&quot; target=&quot;_NEW&quot;&gt; http://nuscotower.com/i/4dfgkmhgd.html&lt;/a&gt; \n\nGeneral\nMommyGotBoobs.Ava.Addams.XXX.NEW.25.August.2014-VIK.mp4\nFormat                           : MPEG-4\nFormat profile                   : Base Media\nCodec ID                         : isom\nFile size                        : 461 MiB\nDuration                         : 30mn 22s\nOverall bit rate                 : 2 120 Kbps\nEncoded date                     : UTC 2014-08-25 11:52:52\nTagged date                      : UTC 2014-08-25 11:52:52\n\nVideo\nID                               : 1\nFormat                           : MPEG-4 Visual\nFormat profile                   : Simple@L1\nFormat settings, BVOP            : No\nFormat settings, QPel            : No\nFormat settings, GMC             : No warppoints\nFormat settings, Matrix          : Default (H.263)\nCodec ID                         : 20\nDuration                         : 30mn 22s\nBit rate mode                    : Variable\nBit rate                         : 1 992 Kbps\nMaximum bit rate                 : 4 084 Kbps\nWidth                            : 856 pixels\nHeight                           : 480 pixels\nDisplay aspect ratio             : 16:9\nFrame rate mode                  : Constant\nFrame rate                       : 23.976 fps\nColor space                      : YUV\nChroma subsampling               : 4:2:0\nBit depth                        : 8 bits\nScan type                        : Progressive\nCompression mode                 : Lossy\nBits/(Pixel*Frame)               : 0.202\nStream size                      : 433 MiB (94%)\nWriting library                  : Lavc53.8.0\nEncoded date                     : UTC 2014-08-25 11:52:52\nTagged date                      : UTC 2014-08-25 11:53:29\n\nAudio\nID                               : 2\nFormat                           : AAC\nFormat/Info                      : Advanced Audio Codec\nFormat profile                   : LC\nCodec ID                         : 40\nDuration                         : 30mn 22s\nBit rate mode                    : Variable\nBit rate                         : 126 Kbps\nMaximum bit rate                 : 192 Kbps\nChannel(s)                       : 2 channels\nChannel positions                : Front: L R\nSampling rate                    : 44.1 KHz\nCompression mode                 : Lossy\nStream size                      : 27.3 MiB (6%)\nEncoded date                     : UTC 2014-08-25 11:53:23\nTagged date                      : UTC 2014-08-25 11:53:29\n\t\t","torrent":{"xt":"urn:btih:368682e88d9771e04bd3b639cb28e35c92025d5e","amp;dn":"MommyGotBoobs+Ava+Addams+XXX+%2A%2A%2A%2A%5BNEW%5D%2A%2A%2A%2A+25+Aug.+2014+","amp;tr":["udp%3A%2F%2Ftracker.openbittorrent.com%3A80","udp%3A%2F%2Fopen.demonii.com%3A1337","udp%3A%2F%2Ftracker.coppersurfer.tk%3A6969","udp%3A%2F%2Fexodus.desync.com%3A6969"],"infoHash":"368682e88d9771e04bd3b639cb28e35c92025d5e","infoHashBuffer":{"type":"Buffer","data":[54,134,130,232,141,151,113,224,75,211,182,57,203,40,227,92,146,2,93,94]},"announce":[],"urlList":[]}}